<?xml version="1.0" encoding="UTF-8"?>
<svg width="149px" height="20px" viewBox="0 0 149 20" version="1.1" xmlns="http://www.w3.org/2000/svg" xmlns:xlink="http://www.w3.org/1999/xlink">
    <!-- Generator: Sketch 56.3 (81716) - https://sketch.com -->
    <title>TK-Logo</title>
    <desc>Created with Sketch.</desc>
    <g id="Page-1" stroke="none" stroke-width="1" fill="none" fill-rule="evenodd">
        <g id="TK-Logo" fill="#34495D" fill-rule="nonzero">
            <g id="Shape-+-Shape-2">
                <path d="M7.39680183,0.734466457 C7.39680183,0.875370371 7.47022331,0.997717457 7.57707143,1.058891 L5.31742626,3.11460361 L4.12098482,0.721540663 C4.26489558,0.679947771 4.37068817,0.537124187 4.37068817,0.368065085 C4.37068817,0.165219758 4.22056122,0 4.03548283,0 C3.84887973,0 3.69922192,0.165219758 3.69922192,0.368065085 C3.69922192,0.536996209 3.80548365,0.679947771 3.94998085,0.721540663 L2.75400856,3.11460361 L0.492369487,1.058891 C0.5996868,0.99758948 0.672990977,0.875242389 0.672990977,0.734466457 C0.672990977,0.531749106 0.522746737,0.368193063 0.336730061,0.368193063 C0.151182532,0.368193063 0,0.531749106 0,0.734466457 C0,0.937695714 0.151182532,1.09971602 0.336730061,1.09971602 C0.354557637,1.09971602 0.370156765,1.09971602 0.385873181,1.09702848 L1.34516094,4.58648002 L6.72486646,4.58648002 L7.68462331,1.09702848 C7.70045703,1.09971602 7.71699446,1.09971602 7.73376646,1.09971602 C7.919314,1.09971602 8.0697928,0.937695714 8.0697928,0.734466457 C8.0697928,0.531877084 7.919314,0.368193063 7.73376646,0.368193063 C7.54774977,0.368193063 7.39680183,0.531749106 7.39680183,0.734466457 Z" id="Shape"></path>
                <path d="M6.76117777,8.7633376 C6.76117777,8.96298497 6.56294623,9.11835909 6.3105944,9.11835909 L1.59562151,9.11835909 C1.34159151,9.11835909 1.14503817,8.96298497 1.14503817,8.7633376 L1.14503817,5.59671294 C1.14503817,5.39706556 1.34180129,5.24169145 1.59562151,5.24169145 L6.3105944,5.24169145 C6.56294623,5.24169145 6.76117777,5.39706556 6.76117777,5.59671294 L6.76117777,8.7633376 L6.76117777,8.7633376 Z M12.2110359,9.17296006 C11.6527648,9.07051766 11.4503817,8.83104846 11.4503817,8.6107564 L11.4503817,7.80793623 C11.4503817,7.80793623 11.821581,7.87710531 11.9105039,7.89628251 C12.0914905,7.93594817 12.2065211,8.16771377 12.2110359,8.37013983 C12.2171211,8.572402 12.2110359,9.17296006 12.2110359,9.17296006 L12.2110359,9.17296006 Z M13.2861491,13.1239897 L13.2861491,8.53326811 C13.2861491,8.04141697 13.0836023,7.64184 12.6655491,7.306222 L9.99732446,5.19041267 C9.81275394,5.19041267 9.30335611,5.59515302 9.30335611,5.59515302 C9.30335611,5.74222531 10.6277487,6.78972 10.6277487,6.78972 L10.5884517,8.5710772 C10.5884517,9.2035048 11.2335078,9.71617594 12.0303172,9.71617594 L12.3879617,9.7200068 L12.2606645,13.1241563 L12.4387552,14.2914074 L13.2405813,17.7358644 C13.270054,18.2953388 12.6281333,18.6284584 12.1218709,18.6284584 C11.6532332,18.6284584 11.109346,18.3199897 11.109346,17.9219117 L11.1191702,11.8854509 C11.1191702,11.1515884 10.371273,10.5556374 9.45030183,10.5556374 L7.9657948,10.5556373 C7.9657948,10.5556373 7.95764286,6.60250674 7.95764286,5.76437777 L7.95764286,5.60947716 C7.95764286,4.89510212 7.22604971,4.31347525 6.3278624,4.31347525 L1.62978044,4.31347525 C0.73159312,4.31347525 0,4.89510212 0,5.60947716 L0,19.2920327 L7.95764286,19.3974651 L7.9576432,11.5677295 L9.45030223,11.5677295 C9.79477806,11.5677295 10.0936857,11.6277829 10.0936857,11.9022735 L10.0936857,17.9219117 C10.0936857,18.7300599 11.0407853,19.4379391 12.1218709,19.4379391 C13.1425478,19.4379391 14.2857143,18.7911874 14.2857143,17.9219117 C14.267738,17.7213737 13.451071,14.1260135 13.451071,14.1260135 C13.451071,14.1181853 13.2861491,13.1239897 13.2861491,13.1239897 Z" id="Shape-2"></path>
            </g>
            <path d="M35.1747432,8.57806754 C35.3624464,8.57806754 35.5219917,8.64376269 35.653384,8.77515497 C35.7847762,8.9065472 35.8504714,9.06609251 35.8504714,9.25379571 C35.8504714,9.43211377 35.7894687,9.58462034 35.6674617,9.71132 C35.5454546,9.83801966 35.3999867,9.91075354 35.2310539,9.92952389 L32.4014422,9.92952389 C32.1198874,9.94829423 31.8876082,10.0163356 31.7045975,10.1336501 C31.5215869,10.2509646 31.3784654,10.3940862 31.2752286,10.563019 C31.1719919,10.7319519 31.1016042,10.9149598 31.0640636,11.1120482 C31.0265229,11.3091365 31.0077529,11.4874519 31.0077529,11.6469996 L31.0077529,14.0402035 C31.0077529,14.2279067 30.9420578,14.387452 30.8106655,14.5188443 C30.6792733,14.6502365 30.5197279,14.7159317 30.3320247,14.7159317 C30.1443215,14.7159317 29.9847762,14.6502365 29.853384,14.5188443 C29.7219917,14.387452 29.6562966,14.2279067 29.6562966,14.0402035 L29.6562966,11.6469996 C29.6562966,11.3560597 29.6938367,11.0627778 29.7689179,10.7671453 C29.8439993,10.4715127 29.9566195,10.1923083 30.1067821,9.92952389 L25.4893063,9.92952389 C25.3016031,9.92952389 25.1420578,9.86382874 25.0106655,9.73243651 C24.8792733,9.60104429 24.8135782,9.44149891 24.8135782,9.25379571 C24.8135782,9.06609251 24.8792733,8.9065472 25.0106655,8.77515497 C25.1420578,8.64376269 25.3016031,8.57806754 25.4893063,8.57806754 L35.1747432,8.57806754 Z M36.6951315,14.4625336 C36.5543541,14.6314665 36.3807313,14.7159317 36.1742578,14.7159317 C35.9865546,14.7159317 35.8270092,14.6502365 35.695617,14.5188443 C35.5642247,14.387452 35.4985296,14.2279067 35.4985296,14.0402035 C35.4985296,13.8712706 35.5454547,13.7351878 35.6393063,13.6319511 L39.0601801,9.02855303 C39.2197278,8.81269434 39.4308907,8.6367252 39.6936753,8.5006404 C39.9564597,8.36455554 40.2380103,8.29651417 40.5383354,8.29651417 C40.8198902,8.29651417 41.0873633,8.3575168 41.3407626,8.47952389 C41.5941619,8.60153097 41.8006323,8.77046131 41.9601801,8.98632 L45.3810539,13.5615627 C45.4373649,13.6272589 45.4842899,13.6999927 45.5218306,13.7797666 C45.5593712,13.8595405 45.5781413,13.9463519 45.5781413,14.0402035 C45.5781413,14.2279067 45.5124461,14.387452 45.3810539,14.5188443 C45.2496617,14.6502365 45.0901163,14.7159317 44.9024131,14.7159317 C44.6771693,14.7159317 44.4988539,14.6267739 44.3674617,14.4484559 L41.0873646,10.0703006 C41.0216685,9.99521931 40.9395495,9.9131004 40.8410053,9.82394137 C40.7424611,9.73478234 40.6415722,9.69020349 40.5383354,9.69020349 C40.4350987,9.69020349 40.3342097,9.73478234 40.2356655,9.82394137 C40.1371214,9.9131004 40.0596949,9.99521931 40.003384,10.0703006 L36.6951315,14.4625336 Z M56.5728017,9.25379571 C56.5728017,9.06609251 56.6384966,8.9065472 56.7698886,8.77515497 C56.9012811,8.64376269 57.0608263,8.57806754 57.2485297,8.57806754 C57.4362326,8.57806754 57.5957783,8.64376269 57.7271703,8.77515497 C57.8585629,8.9065472 57.9242577,9.06609251 57.9242577,9.25379571 L57.9242577,13.3503977 C57.9242577,13.7351893 57.7952137,14.0589724 57.5371217,14.3217569 C57.2790297,14.5845414 56.9575931,14.7159317 56.5728017,14.7159317 C56.4414091,14.7159317 56.3123651,14.6971616 56.1856657,14.659621 C56.0589657,14.6220803 55.9439994,14.5704627 55.8407629,14.5047666 L49.3931898,10.563019 C49.2148718,10.4597823 49.0670577,10.3776634 48.9497432,10.3166598 C48.8324287,10.2556563 48.7362322,10.225155 48.661151,10.225155 C48.5203735,10.225155 48.4312159,10.3143126 48.3936753,10.4926307 C48.3561346,10.6709487 48.3373646,10.9290367 48.3373646,11.2669025 L48.3373646,14.0402035 C48.3373646,14.2279067 48.2716694,14.387452 48.1402772,14.5188443 C48.0088849,14.6502365 47.8493396,14.7159317 47.6616364,14.7159317 C47.4739332,14.7159317 47.3143879,14.6502365 47.1829956,14.5188443 C47.0516034,14.387452 46.9859082,14.2279067 46.9859082,14.0402035 L46.9859082,9.94360154 C46.9859082,9.55881 47.1149523,9.2350268 47.3730442,8.97224234 C47.6311361,8.70945783 47.952573,8.57806754 48.3373646,8.57806754 C48.4687568,8.57806754 48.5978008,8.5968376 48.7245005,8.63437823 C48.8512001,8.67191891 48.9661666,8.72353651 49.0694034,8.78923263 L55.516976,12.7309802 C55.6952943,12.834217 55.8431086,12.9163359 55.9604229,12.9773394 C56.0777371,13.038343 56.1739337,13.0688443 56.2490149,13.0688443 C56.3897926,13.0688443 56.4789503,12.9796866 56.5164909,12.8013685 C56.5540314,12.6230505 56.5728017,12.3649625 56.5728017,12.0270967 L56.5728017,9.25379571 Z M60.6694034,10.9712714 L63.9213451,10.9712714 C64.4093737,10.9712714 64.8880097,10.9079226 65.3572674,10.7812229 C65.8265257,10.6545233 66.2840451,10.4879391 66.72984,10.2814657 C67.1756354,10.0749921 67.6026537,9.84036663 68.010908,9.57758211 C68.4191629,9.31479766 68.8109874,9.04732457 69.1863937,8.77515497 C69.3459411,8.64376269 69.5054869,8.57806754 69.6650343,8.57806754 C69.8527377,8.57806754 70.0122829,8.64376269 70.1436754,8.77515497 C70.2750674,8.9065472 70.3407629,9.06609251 70.3407629,9.25379571 C70.3407629,9.38518794 70.3032223,9.50015446 70.2281411,9.59869863 C70.15306,9.6972428 70.0639023,9.78405423 69.9606657,9.85913554 C69.7166514,10.0468387 69.4820257,10.2228078 69.2567823,10.3870482 C69.0315383,10.5512885 68.8062977,10.703795 68.5810537,10.8445724 C68.3558103,10.9853498 68.1235309,11.1214326 67.8842091,11.2528249 C67.6448874,11.3842171 67.3891457,11.5156074 67.116976,11.6469996 C67.3891457,11.7783918 67.6448874,11.9097821 67.8842091,12.0411743 C68.1235309,12.1725666 68.3558103,12.3086494 68.5810537,12.4494268 C68.8062977,12.5902042 69.0315383,12.7427107 69.2567823,12.9069511 C69.4820257,13.0711914 69.7166514,13.2471605 69.9606657,13.4348637 C70.0639023,13.509945 70.15306,13.5967564 70.2281411,13.6953006 C70.3032223,13.7938447 70.3407629,13.9088113 70.3407629,14.0402035 C70.3407629,14.2279067 70.2750674,14.387452 70.1436754,14.5188443 C70.0122829,14.6502365 69.8527377,14.7159317 69.6650343,14.7159317 C69.5054869,14.7159317 69.3459411,14.6502365 69.1863937,14.5188443 C68.8016023,14.2372895 68.4050851,13.9651239 67.9968309,13.7023394 C67.588576,13.4395549 67.163904,13.2049294 66.7228017,12.9984559 C66.2816989,12.7919824 65.8265257,12.6277446 65.3572674,12.5057375 C64.8880097,12.3837304 64.4093737,12.3227278 63.9213451,12.3227278 L60.6694034,12.3227278 L60.6694034,14.0402035 C60.6694034,14.2279067 60.603708,14.387452 60.472316,14.5188443 C60.340924,14.6502365 60.1860709,14.7159317 60.0077531,14.7159317 C59.8200497,14.7159317 59.6605046,14.6502365 59.529112,14.5188443 C59.39772,14.387452 59.3320246,14.2279067 59.3320246,14.0402035 L59.3320246,9.25379571 C59.3320246,9.06609251 59.39772,8.9065472 59.529112,8.77515497 C59.6605046,8.64376269 59.8153571,8.57806754 59.9936754,8.57806754 C60.1813783,8.57806754 60.340924,8.64376269 60.472316,8.77515497 C60.603708,8.9065472 60.6694034,9.06609251 60.6694034,9.25379571 L60.6694034,10.9712714 Z M71.7485297,9.25379571 C71.7485297,9.06609251 71.8142246,8.9065472 71.9456171,8.77515497 C72.0770091,8.64376269 72.2365543,8.57806754 72.4242577,8.57806754 L82.4053257,8.57806754 C82.5930291,8.57806754 82.7525743,8.64376269 82.8839663,8.77515497 C83.0153589,8.9065472 83.0810537,9.06609251 83.0810537,9.25379571 C83.0810537,9.44149891 83.0153589,9.60104429 82.8839663,9.73243651 C82.7525743,9.86382874 82.5930291,9.92952389 82.4053257,9.92952389 L72.4242577,9.92952389 C72.2365543,9.92952389 72.0770091,9.86382874 71.9456171,9.73243651 C71.8142246,9.60104429 71.7485297,9.44149891 71.7485297,9.25379571 L71.7485297,9.25379571 Z M73.4660051,14.7159317 C73.259532,14.7159317 73.0530611,14.6713528 72.846588,14.5821938 C72.6401143,14.4930347 72.4571063,14.3686833 72.2975589,14.2091355 C72.1380109,14.0495878 72.0066206,13.8571949 71.903384,13.6319511 C71.8001474,13.4067072 71.7485297,13.1533117 71.7485297,12.8717569 L71.7485297,11.6047666 C71.7485297,11.3513673 71.8212634,11.1824369 71.9667337,11.0979705 C72.1122034,11.0135041 72.3397903,10.9712714 72.6495006,10.9712714 L82.0956171,10.9712714 C82.28332,10.9712714 82.4428657,11.0369666 82.5742577,11.1683589 C82.7056503,11.2997511 82.7713451,11.4592964 82.7713451,11.6469996 C82.7713451,11.8347028 82.7056503,11.9942482 82.5742577,12.1256404 C82.4428657,12.2570326 82.28332,12.3227278 82.0956171,12.3227278 L73.0999857,12.3227278 L73.0999857,13.0125336 C73.0999857,13.1063852 73.139872,13.1885041 73.2196463,13.2588928 C73.29942,13.3292815 73.4050017,13.3644753 73.5363937,13.3644753 L82.4053257,13.3644753 C82.5930291,13.3644753 82.7525743,13.4301705 82.8839663,13.5615627 C83.0153589,13.692955 83.0810537,13.8525003 83.0810537,14.0402035 C83.0810537,14.2279067 83.0153589,14.387452 82.8839663,14.5188443 C82.7525743,14.6502365 82.5930291,14.7159317 82.4053257,14.7159317 L73.4660051,14.7159317 Z M93.5407629,12.3227278 C93.7941617,12.4822755 94.0522497,12.6535521 94.3150343,12.8365627 C94.5778189,13.0195733 94.845292,13.219005 95.1174617,13.4348637 C95.2206983,13.509945 95.309856,13.5967564 95.3849371,13.6953006 C95.4600189,13.7938447 95.4975589,13.9088113 95.4975589,14.0402035 C95.4975589,14.2279067 95.4318634,14.387452 95.3004714,14.5188443 C95.1690789,14.6502365 95.0095337,14.7159317 94.8218309,14.7159317 C94.6622829,14.7159317 94.5027377,14.6502365 94.3431897,14.5188443 C93.9583983,14.2372895 93.5642274,13.9651239 93.1606657,13.7023394 C92.7571034,13.4395549 92.337124,13.2049294 91.9007143,12.9984559 C91.464304,12.7919824 91.0114771,12.6277446 90.5422189,12.5057375 C90.0729611,12.3837304 89.58494,12.3227278 89.0781411,12.3227278 L86.2766851,12.3227278 C86.1546777,12.3414981 86.0514429,12.3978082 85.966976,12.4916598 C85.8825097,12.5855114 85.8402771,12.7028242 85.8402771,12.8436015 L85.8402771,14.0402035 C85.8402771,14.2279067 85.772236,14.387452 85.6361509,14.5188443 C85.5000663,14.6502365 85.3428669,14.7159317 85.1645491,14.7159317 C84.9768457,14.7159317 84.8173006,14.6502365 84.685908,14.5188443 C84.554516,14.387452 84.4888211,14.2279067 84.4888211,14.0402035 L84.4888211,12.6887472 C84.4888211,12.4541182 84.5333994,12.2312239 84.6225589,12.0200579 C84.7117177,11.8088918 84.8313766,11.6258839 84.9815394,11.4710287 C85.1317017,11.3161736 85.3100171,11.1941683 85.5164909,11.1050093 C85.7229646,11.0158503 85.9482046,10.9712714 86.1922189,10.9712714 L93.653384,10.9712714 C93.7941611,10.9712714 93.9185131,10.9220001 94.0264423,10.8234559 C94.1343714,10.7249117 94.1883354,10.6005602 94.1883354,10.4503977 C94.1883354,10.3096203 94.1343714,10.187615 94.0264423,10.0843782 C93.9185131,9.98114149 93.7941611,9.92952389 93.653384,9.92952389 L85.1645491,9.92952389 C84.9768457,9.92952389 84.8173006,9.86382874 84.685908,9.73243651 C84.554516,9.60104429 84.4888211,9.44149891 84.4888211,9.25379571 C84.4888211,9.06609251 84.554516,8.9065472 84.685908,8.77515497 C84.8173006,8.64376269 84.9768457,8.57806754 85.1645491,8.57806754 L93.5970731,8.57806754 C93.8598577,8.57806754 94.1062143,8.62733891 94.3361509,8.72588309 C94.5660874,8.82442731 94.7678651,8.95816383 94.9414909,9.12709669 C95.115116,9.2960296 95.2511989,9.49311497 95.3497434,9.71835886 C95.4482874,9.94360269 95.4975589,10.1876132 95.4975589,10.4503977 C95.4975589,10.7131822 95.4482874,10.9571927 95.3497434,11.1824365 C95.2511989,11.4076803 95.115116,11.6047658 94.9414909,11.7736986 C94.7678651,11.9426315 94.5660874,12.0763681 94.3361509,12.1749122 C94.1062143,12.2734564 93.8598577,12.3227278 93.5970731,12.3227278 L93.5407629,12.3227278 Z M98.2427046,10.9712714 L101.494646,10.9712714 C101.982674,10.9712714 102.46131,10.9079226 102.930569,10.7812229 C103.399826,10.6545233 103.857346,10.4879391 104.303141,10.2814657 C104.748937,10.0749921 105.175955,9.84036663 105.584209,9.57758211 C105.992463,9.31479766 106.384288,9.04732457 106.759695,8.77515497 C106.919242,8.64376269 107.078787,8.57806754 107.238335,8.57806754 C107.426039,8.57806754 107.585584,8.64376269 107.716976,8.77515497 C107.848369,8.9065472 107.914063,9.06609251 107.914063,9.25379571 C107.914063,9.38518794 107.876523,9.50015446 107.801442,9.59869863 C107.726361,9.6972428 107.637203,9.78405423 107.533966,9.85913554 C107.289953,10.0468387 107.055327,10.2228078 106.830083,10.3870482 C106.604839,10.5512885 106.379599,10.703795 106.154355,10.8445724 C105.929111,10.9853498 105.696832,11.1214326 105.45751,11.2528249 C105.218189,11.3842171 104.962447,11.5156074 104.690277,11.6469996 C104.962447,11.7783918 105.218189,11.9097821 105.45751,12.0411743 C105.696832,12.1725666 105.929111,12.3086494 106.154355,12.4494268 C106.379599,12.5902042 106.604839,12.7427107 106.830083,12.9069511 C107.055327,13.0711914 107.289953,13.2471605 107.533966,13.4348637 C107.637203,13.509945 107.726361,13.5967564 107.801442,13.6953006 C107.876523,13.7938447 107.914063,13.9088113 107.914063,14.0402035 C107.914063,14.2279067 107.848369,14.387452 107.716976,14.5188443 C107.585584,14.6502365 107.426039,14.7159317 107.238335,14.7159317 C107.078787,14.7159317 106.919242,14.6502365 106.759695,14.5188443 C106.374903,14.2372895 105.978386,13.9651239 105.570131,13.7023394 C105.161877,13.4395549 104.737205,13.2049294 104.296102,12.9984559 C103.855,12.7919824 103.399826,12.6277446 102.930569,12.5057375 C102.46131,12.3837304 101.982674,12.3227278 101.494646,12.3227278 L98.2427046,12.3227278 L98.2427046,14.0402035 C98.2427046,14.2279067 98.1770091,14.387452 98.0456171,14.5188443 C97.9142246,14.6502365 97.759372,14.7159317 97.5810537,14.7159317 C97.3933509,14.7159317 97.2338051,14.6502365 97.1024131,14.5188443 C96.9710206,14.387452 96.9053257,14.2279067 96.9053257,14.0402035 L96.9053257,9.25379571 C96.9053257,9.06609251 96.9710206,8.9065472 97.1024131,8.77515497 C97.2338051,8.64376269 97.3886583,8.57806754 97.566976,8.57806754 C97.7546794,8.57806754 97.9142246,8.64376269 98.0456171,8.77515497 C98.1770091,8.9065472 98.2427046,9.06609251 98.2427046,9.25379571 L98.2427046,10.9712714 Z M117.895131,13.3644753 C118.214227,13.3644753 118.477007,13.305819 118.683481,13.1885045 C118.889955,13.0711899 119.051846,12.9280684 119.169161,12.7591355 C119.286475,12.5902026 119.366248,12.4048485 119.408481,12.2030675 C119.450714,12.0012866 119.471831,11.8159325 119.471831,11.6469996 C119.471831,11.4780667 119.450714,11.2927126 119.408481,11.0909317 C119.366248,10.8891507 119.286475,10.7037966 119.169161,10.5348637 C119.051846,10.3659308 118.889955,10.2228093 118.683481,10.1054947 C118.477007,9.98818023 118.214227,9.92952389 117.895131,9.92952389 L112.207753,9.92952389 C111.879273,9.92952389 111.614146,9.98818023 111.412365,10.1054947 C111.210583,10.2228093 111.051038,10.3659308 110.933724,10.5348637 C110.816409,10.7037966 110.736637,10.8891507 110.694403,11.0909317 C110.65217,11.2927126 110.631054,11.4780667 110.631054,11.6469996 C110.631054,11.8159325 110.65217,12.0012866 110.694403,12.2030675 C110.736637,12.4048485 110.816409,12.5902026 110.933724,12.7591355 C111.051038,12.9280684 111.210583,13.0711899 111.412365,13.1885045 C111.614146,13.305819 111.879273,13.3644753 112.207753,13.3644753 L117.895131,13.3644753 Z M120.781054,11.6469996 C120.781054,12.0036357 120.722398,12.3626127 120.605083,12.7239414 C120.487769,13.08527 120.316492,13.4137457 120.091248,13.7093782 C119.866004,14.0050108 119.593839,14.246675 119.274743,14.4343782 C118.955648,14.6220814 118.594325,14.7159317 118.190763,14.7159317 L111.771345,14.7159317 C111.386554,14.6971613 111.044001,14.5915799 110.743675,14.3991841 C110.44335,14.2067883 110.187609,13.9651241 109.976442,13.6741841 C109.765276,13.3832441 109.603385,13.0594609 109.490763,12.7028249 C109.378141,12.3461887 109.321831,11.9942505 109.321831,11.6469996 C109.321831,11.2903635 109.380487,10.9313865 109.497802,10.5700579 C109.615116,10.2087292 109.786393,9.88025354 110.011637,9.58462097 C110.23688,9.2889884 110.509046,9.04732417 110.828141,8.85962097 C111.147237,8.67191777 111.50856,8.57806754 111.912122,8.57806754 L118.331539,8.57806754 C118.716331,8.59683789 119.058884,8.70241937 119.359209,8.89481514 C119.659534,9.08721091 119.915276,9.3288752 120.126442,9.61981514 C120.337609,9.91075509 120.4995,10.2345383 120.612122,10.5911743 C120.724744,10.9478105 120.781054,11.2997487 120.781054,11.6469996 L120.781054,11.6469996 Z M131.775714,9.25379571 C131.775714,9.06609251 131.841409,8.9065472 131.972802,8.77515497 C132.104194,8.64376269 132.263739,8.57806754 132.451442,8.57806754 C132.639145,8.57806754 132.798691,8.64376269 132.930083,8.77515497 C133.061475,8.9065472 133.12717,9.06609251 133.12717,9.25379571 L133.12717,13.3503977 C133.12717,13.7351893 132.998126,14.0589724 132.740034,14.3217569 C132.481942,14.5845414 132.160506,14.7159317 131.775714,14.7159317 C131.644322,14.7159317 131.515278,14.6971616 131.388578,14.659621 C131.261878,14.6220803 131.146912,14.5704627 131.043675,14.5047666 L124.596102,10.563019 C124.417785,10.4597823 124.26997,10.3776634 124.152656,10.3166598 C124.035341,10.2556563 123.939145,10.225155 123.864063,10.225155 C123.723286,10.225155 123.634129,10.3143126 123.596588,10.4926307 C123.559047,10.6709487 123.540277,10.9290367 123.540277,11.2669025 L123.540277,14.0402035 C123.540277,14.2279067 123.474582,14.387452 123.34319,14.5188443 C123.211798,14.6502365 123.052252,14.7159317 122.864549,14.7159317 C122.676846,14.7159317 122.517301,14.6502365 122.385908,14.5188443 C122.254516,14.387452 122.188821,14.2279067 122.188821,14.0402035 L122.188821,9.94360154 C122.188821,9.55881 122.317865,9.2350268 122.575957,8.97224234 C122.834049,8.70945783 123.155486,8.57806754 123.540277,8.57806754 C123.671669,8.57806754 123.800714,8.5968376 123.927413,8.63437823 C124.054113,8.67191891 124.169079,8.72353651 124.272316,8.78923263 L130.719889,12.7309802 C130.898207,12.834217 131.046021,12.9163359 131.163335,12.9773394 C131.28065,13.038343 131.376846,13.0688443 131.451927,13.0688443 C131.592705,13.0688443 131.681863,12.9796866 131.719403,12.8013685 C131.756944,12.6230505 131.775714,12.3649625 131.775714,12.0270967 L131.775714,9.25379571 Z M135.886394,14.0402035 C135.886394,14.2279067 135.820698,14.387452 135.689306,14.5188443 C135.557914,14.6502365 135.398369,14.7159317 135.210666,14.7159317 C135.022962,14.7159317 134.863417,14.6502365 134.732025,14.5188443 C134.600633,14.387452 134.534937,14.2279067 134.534937,14.0402035 L134.534937,9.25379571 C134.534937,9.06609251 134.600633,8.9065472 134.732025,8.77515497 C134.863417,8.64376269 135.022962,8.57806754 135.210666,8.57806754 C135.398369,8.57806754 135.557914,8.64376269 135.689306,8.77515497 C135.820698,8.9065472 135.886394,9.06609251 135.886394,9.25379571 L135.886394,14.0402035 Z M141.010666,11.6469996 C141.010666,11.4592964 141.076361,11.2997511 141.207753,11.1683589 C141.339145,11.0369666 141.49869,10.9712714 141.686394,10.9712714 L147.078141,10.9712714 C147.31277,10.9712714 147.533318,11.0158503 147.739792,11.1050093 C147.946265,11.1941683 148.126927,11.3161736 148.281782,11.4710287 C148.436637,11.6258839 148.556296,11.8088918 148.640763,12.0200579 C148.725229,12.2312239 148.767462,12.4541182 148.767462,12.6887472 L148.767462,12.9984559 C148.767462,13.2330849 148.725229,13.4559791 148.640763,13.6671453 C148.556296,13.8783114 148.436637,14.0613192 148.281782,14.2161743 C148.126927,14.3710295 147.946265,14.4930347 147.739792,14.5821938 C147.533318,14.6713528 147.31277,14.7159317 147.078141,14.7159317 L139.743675,14.7159317 C139.358883,14.7159317 139.01633,14.6220814 138.716005,14.4343782 C138.41568,14.246675 138.159938,14.0050108 137.948773,13.7093782 C137.737606,13.4137457 137.575715,13.0829238 137.463093,12.7169025 C137.350471,12.3508813 137.294161,11.9942505 137.294161,11.6469996 C137.294161,11.2903635 137.352817,10.9313865 137.470131,10.5700579 C137.587446,10.2087292 137.758723,9.88025354 137.983966,9.58462097 C138.20921,9.2889884 138.481376,9.04732417 138.800471,8.85962097 C139.119567,8.67191777 139.48089,8.57806754 139.884452,8.57806754 L148.091734,8.57806754 C148.279437,8.57806754 148.438982,8.64376269 148.570374,8.77515497 C148.701766,8.9065472 148.767462,9.06609251 148.767462,9.25379571 C148.767462,9.44149891 148.701766,9.60104429 148.570374,9.73243651 C148.438982,9.86382874 148.279437,9.92952389 148.091734,9.92952389 L140.194161,9.92952389 C139.86568,9.92952389 139.600553,9.98818023 139.398773,10.1054947 C139.196991,10.2228093 139.037446,10.3659308 138.920131,10.5348637 C138.802817,10.7037966 138.723045,10.8891507 138.680811,11.0909317 C138.638578,11.2927126 138.617462,11.4780667 138.617462,11.6469996 C138.617462,11.8159325 138.638578,12.0012866 138.680811,12.2030675 C138.723045,12.4048485 138.802817,12.5902026 138.920131,12.7591355 C139.037446,12.9280684 139.196991,13.0711899 139.398773,13.1885045 C139.600553,13.305819 139.86568,13.3644753 140.194161,13.3644753 L147.021831,13.3644753 C147.134453,13.3644753 147.235342,13.3128577 147.324501,13.209621 C147.413659,13.1063842 147.458238,12.984379 147.458238,12.8436015 C147.458238,12.7028242 147.418352,12.5808189 147.338578,12.4775821 C147.258804,12.3743454 147.153223,12.3227278 147.021831,12.3227278 L141.686394,12.3227278 C141.49869,12.3227278 141.339145,12.2570326 141.207753,12.1256404 C141.076361,11.9942482 141.010666,11.8347028 141.010666,11.6469996 L141.010666,11.6469996 Z" id="Tankerkonig"></path>
            <path d="M119.716326,2.56938772 C119.716326,2.73343499 119.822326,2.8758775 119.976584,2.94709874 L116.714299,5.34046057 L114.986978,2.55433887 C115.194744,2.50591439 115.347478,2.33963214 115.347478,2.14280521 C115.347478,1.90664269 115.130738,1.71428571 114.863537,1.71428571 C114.594135,1.71428571 114.378072,1.90664269 114.378072,2.14280521 C114.378072,2.33948314 114.531484,2.50591439 114.740097,2.55433887 L113.013453,5.34046057 L109.74829,2.94709874 C109.903225,2.8757285 110.009055,2.73328599 110.009055,2.56938772 C110.009055,2.3333742 109.792146,2.14295421 109.52359,2.14295421 C109.255713,2.14295421 109.037448,2.3333742 109.037448,2.56938772 C109.037448,2.80599723 109.255713,2.99462925 109.52359,2.99462925 C109.549329,2.99462925 109.571849,2.99462925 109.594539,2.99150028 L110.979478,7.05409154 L118.746242,7.05409154 L120.131858,2.99150028 C120.154718,2.99462925 120.178593,2.99462925 120.202807,2.99462925 C120.470685,2.99462925 120.687933,2.80599723 120.687933,2.56938772 C120.687933,2.3335232 120.470685,2.14295421 120.202807,2.14295421 C119.934252,2.14295421 119.716326,2.3333742 119.716326,2.56938772 Z" id="Path"></path>
        </g>
    </g>
</svg>
